<svg width="180" height="180" viewBox="0 0 180 180" fill="none" xmlns="http://www.w3.org/2000/svg">
  <rect width="180" height="180" rx="20" fill="#2563eb"/>
  <g transform="translate(30, 30)">
    <!-- School building -->
    <rect x="18" y="56" width="84" height="64" fill="white" rx="4"/>
    
    <!-- Roof -->
    <path d="M10 56 L60 18 L110 56 Z" fill="#1d4ed8"/>
    
    <!-- Door -->
    <rect x="52" y="90" width="16" height="30" fill="#1d4ed8" rx="2"/>
    <circle cx="64" cy="105" r="1.5" fill="white"/>
    
    <!-- Windows -->
    <rect x="26" y="68" width="12" height="12" fill="#1d4ed8" rx="1"/>
    <rect x="42" y="68" width="12" height="12" fill="#1d4ed8" rx="1"/>
    <rect x="66" y="68" width="12" height="12" fill="#1d4ed8" rx="1"/>
    <rect x="82" y="68" width="12" height="12" fill="#1d4ed8" rx="1"/>
    
    <rect x="26" y="82" width="12" height="12" fill="#1d4ed8" rx="1"/>
    <rect x="42" y="82" width="12" height="12" fill="#1d4ed8" rx="1"/>
    <rect x="66" y="82" width="12" height="12" fill="#1d4ed8" rx="1"/>
    <rect x="82" y="82" width="12" height="12" fill="#1d4ed8" rx="1"/>
    
    <!-- Flag pole -->
    <rect x="60" y="18" width="2" height="18" fill="#dc2626"/>
    <rect x="62" y="18" width="8" height="6" fill="#dc2626"/>
    
    <!-- Book icon -->
    <g transform="translate(6, 94)">
      <rect x="0" y="0" width="8" height="12" fill="#059669" rx="1"/>
      <rect x="2" y="2" width="4" height="1" fill="white"/>
      <rect x="2" y="4" width="4" height="1" fill="white"/>
      <rect x="2" y="6" width="3" height="1" fill="white"/>
    </g>
    
    <!-- Graduation cap -->
    <g transform="translate(106, 90)">
      <ellipse cx="8" cy="8" rx="8" ry="3" fill="#1d4ed8"/>
      <rect x="6" y="5" width="4" height="6" fill="#1d4ed8"/>
      <rect x="14" y="8" width="2" height="8" fill="#dc2626"/>
      <rect x="16" y="8" width="4" height="2" fill="#dc2626"/>
    </g>
  </g>
</svg>