<svg width="180" height="180" viewBox="0 0 180 180" fill="none" xmlns="http://www.w3.org/2000/svg">
  <!-- Background with gradient -->
  <defs>
    <linearGradient id="bgGradientApple" x1="0%" y1="0%" x2="100%" y2="100%">
      <stop offset="0%" style="stop-color:#3b82f6;stop-opacity:1" />
      <stop offset="100%" style="stop-color:#1d4ed8;stop-opacity:1" />
    </linearGradient>
    <linearGradient id="roofGradientApple" x1="0%" y1="0%" x2="100%" y2="100%">
      <stop offset="0%" style="stop-color:#ef4444;stop-opacity:1" />
      <stop offset="100%" style="stop-color:#dc2626;stop-opacity:1" />
    </linearGradient>
  </defs>
  
  <!-- Background with rounded corners for iOS -->
  <rect width="180" height="180" rx="40" fill="url(#bgGradientApple)"/>
  
  <!-- School building - centered and simplified -->
  <g transform="translate(90, 90)">
    <!-- Main building -->
    <rect x="-37" y="-8" width="74" height="47" fill="white" rx="4"/>
    
    <!-- Triangular roof -->
    <path d="M-47 -8 L0 -37 L47 -8 Z" fill="url(#roofGradientApple)"/>
    
    <!-- Door -->
    <rect x="-7" y="10" width="14" height="29" fill="#1d4ed8" rx="2"/>
    <circle cx="4" cy="24" r="2" fill="white"/>
    
    <!-- Windows - symmetrical -->
    <rect x="-28" y="-4" width="11" height="11" fill="#1d4ed8" rx="2"/>
    <rect x="-28" y="7" width="11" height="11" fill="#1d4ed8" rx="2"/>
    
    <rect x="17" y="-4" width="11" height="11" fill="#1d4ed8" rx="2"/>
    <rect x="17" y="7" width="11" height="11" fill="#1d4ed8" rx="2"/>
    
    <!-- Small decorative elements -->
    <rect x="-2" y="-32" width="4" height="14" fill="#fbbf24"/>
    <rect x="-6" y="-32" width="12" height="4" fill="#f59e0b"/>
  </g>
</svg>