<svg width="512" height="512" viewBox="0 0 512 512" fill="none" xmlns="http://www.w3.org/2000/svg">
  <rect width="512" height="512" rx="64" fill="#2563eb"/>
  <g transform="translate(86, 86)">
    <!-- School building -->
    <rect x="54" y="160" width="232" height="180" fill="white" rx="8"/>
    
    <!-- Roof -->
    <path d="M32 160 L170 54 L308 160 Z" fill="#1d4ed8"/>
    
    <!-- Door -->
    <rect x="148" y="256" width="44" height="84" fill="#1d4ed8" rx="4"/>
    <circle cx="180" cy="298" r="4" fill="white"/>
    
    <!-- Windows -->
    <rect x="74" y="192" width="32" height="32" fill="#1d4ed8" rx="2"/>
    <rect x="118" y="192" width="32" height="32" fill="#1d4ed8" rx="2"/>
    <rect x="192" y="192" width="32" height="32" fill="#1d4ed8" rx="2"/>
    <rect x="236" y="192" width="32" height="32" fill="#1d4ed8" rx="2"/>
    
    <rect x="74" y="234" width="32" height="32" fill="#1d4ed8" rx="2"/>
    <rect x="118" y="234" width="32" height="32" fill="#1d4ed8" rx="2"/>
    <rect x="192" y="234" width="32" height="32" fill="#1d4ed8" rx="2"/>
    <rect x="236" y="234" width="32" height="32" fill="#1d4ed8" rx="2"/>
    
    <!-- Flag pole -->
    <rect x="170" y="54" width="4" height="54" fill="#dc2626"/>
    <rect x="174" y="54" width="20" height="16" fill="#dc2626"/>
    
    <!-- Book icon -->
    <g transform="translate(20, 266)">
      <rect x="0" y="0" width="20" height="32" fill="#059669" rx="2"/>
      <rect x="4" y="6" width="12" height="2" fill="white"/>
      <rect x="4" y="10" width="12" height="2" fill="white"/>
      <rect x="4" y="14" width="10" height="2" fill="white"/>
      <rect x="4" y="18" width="8" height="2" fill="white"/>
    </g>
    
    <!-- Graduation cap -->
    <g transform="translate(298, 256)">
      <ellipse cx="20" cy="20" rx="20" ry="8" fill="#1d4ed8"/>
      <rect x="16" y="12" width="8" height="16" fill="#1d4ed8"/>
      <rect x="36" y="20" width="4" height="20" fill="#dc2626"/>
      <rect x="40" y="20" width="10" height="4" fill="#dc2626"/>
    </g>
    
    <!-- Persian text elements -->
    <g transform="translate(170, 120)">
      <circle cx="0" cy="0" r="8" fill="#fbbf24"/>
      <rect x="-12" y="-2" width="24" height="4" fill="#fbbf24" rx="2"/>
    </g>
  </g>
</svg>