<svg width="192" height="192" viewBox="0 0 192 192" fill="none" xmlns="http://www.w3.org/2000/svg">
  <!-- Background with gradient -->
  <defs>
    <linearGradient id="bgGradient" x1="0%" y1="0%" x2="100%" y2="100%">
      <stop offset="0%" style="stop-color:#3b82f6;stop-opacity:1" />
      <stop offset="100%" style="stop-color:#1d4ed8;stop-opacity:1" />
    </linearGradient>
    <linearGradient id="roofGradient" x1="0%" y1="0%" x2="100%" y2="100%">
      <stop offset="0%" style="stop-color:#ef4444;stop-opacity:1" />
      <stop offset="100%" style="stop-color:#dc2626;stop-opacity:1" />
    </linearGradient>
  </defs>
  
  <!-- Background circle -->
  <circle cx="96" cy="96" r="96" fill="url(#bgGradient)"/>
  
  <!-- School building - centered and simplified -->
  <g transform="translate(96, 96)">
    <!-- Main building -->
    <rect x="-40" y="-10" width="80" height="50" fill="white" rx="4"/>
    
    <!-- Triangular roof -->
    <path d="M-50 -10 L0 -40 L50 -10 Z" fill="url(#roofGradient)"/>
    
    <!-- Door -->
    <rect x="-8" y="10" width="16" height="30" fill="#1d4ed8" rx="2"/>
    <circle cx="4" cy="25" r="2" fill="white"/>
    
    <!-- Windows - symmetrical -->
    <rect x="-30" y="-5" width="12" height="12" fill="#1d4ed8" rx="2"/>
    <rect x="-30" y="8" width="12" height="12" fill="#1d4ed8" rx="2"/>
    
    <rect x="18" y="-5" width="12" height="12" fill="#1d4ed8" rx="2"/>
    <rect x="18" y="8" width="12" height="12" fill="#1d4ed8" rx="2"/>
    
    <!-- Small decorative elements -->
    <rect x="-2" y="-35" width="4" height="15" fill="#fbbf24"/>
    <rect x="-6" y="-35" width="12" height="4" fill="#f59e0b"/>
  </g>
</svg>