<svg width="48" height="48" viewBox="0 0 48 48" fill="none" xmlns="http://www.w3.org/2000/svg">
  <!-- Background with gradient -->
  <defs>
    <linearGradient id="bgGradient48" x1="0%" y1="0%" x2="100%" y2="100%">
      <stop offset="0%" style="stop-color:#3b82f6;stop-opacity:1" />
      <stop offset="100%" style="stop-color:#1d4ed8;stop-opacity:1" />
    </linearGradient>
    <linearGradient id="roofGradient48" x1="0%" y1="0%" x2="100%" y2="100%">
      <stop offset="0%" style="stop-color:#ef4444;stop-opacity:1" />
      <stop offset="100%" style="stop-color:#dc2626;stop-opacity:1" />
    </linearGradient>
  </defs>
  
  <!-- Background circle -->
  <circle cx="24" cy="24" r="24" fill="url(#bgGradient48)"/>
  
  <!-- School building - centered and simplified -->
  <g transform="translate(24, 24)">
    <!-- Main building -->
    <rect x="-10" y="-2" width="20" height="12" fill="white" rx="1"/>
    
    <!-- Triangular roof -->
    <path d="M-12 -2 L0 -10 L12 -2 Z" fill="url(#roofGradient48)"/>
    
    <!-- Door -->
    <rect x="-2" y="3" width="4" height="7" fill="#1d4ed8" rx="0.5"/>
    <circle cx="1" cy="6" r="0.5" fill="white"/>
    
    <!-- Windows - symmetrical -->
    <rect x="-7" y="-1" width="3" height="3" fill="#1d4ed8" rx="0.5"/>
    <rect x="-7" y="2" width="3" height="3" fill="#1d4ed8" rx="0.5"/>
    
    <rect x="4" y="-1" width="3" height="3" fill="#1d4ed8" rx="0.5"/>
    <rect x="4" y="2" width="3" height="3" fill="#1d4ed8" rx="0.5"/>
    
    <!-- Small decorative elements -->
    <rect x="-0.5" y="-9" width="1" height="4" fill="#fbbf24"/>
    <rect x="-1.5" y="-9" width="3" height="1" fill="#f59e0b"/>
  </g>
</svg>