<svg width="192" height="192" viewBox="0 0 192 192" fill="none" xmlns="http://www.w3.org/2000/svg">
  <rect width="192" height="192" rx="24" fill="#2563eb"/>
  <g transform="translate(32, 32)">
    <!-- School building -->
    <rect x="20" y="60" width="88" height="68" fill="white" rx="4"/>
    
    <!-- Roof -->
    <path d="M12 60 L64 20 L116 60 Z" fill="#1d4ed8"/>
    
    <!-- Door -->
    <rect x="56" y="96" width="16" height="32" fill="#1d4ed8" rx="2"/>
    <circle cx="68" cy="112" r="1.5" fill="white"/>
    
    <!-- Windows -->
    <rect x="28" y="72" width="12" height="12" fill="#1d4ed8" rx="1"/>
    <rect x="44" y="72" width="12" height="12" fill="#1d4ed8" rx="1"/>
    <rect x="72" y="72" width="12" height="12" fill="#1d4ed8" rx="1"/>
    <rect x="88" y="72" width="12" height="12" fill="#1d4ed8" rx="1"/>
    
    <rect x="28" y="88" width="12" height="12" fill="#1d4ed8" rx="1"/>
    <rect x="44" y="88" width="12" height="12" fill="#1d4ed8" rx="1"/>
    <rect x="72" y="88" width="12" height="12" fill="#1d4ed8" rx="1"/>
    <rect x="88" y="88" width="12" height="12" fill="#1d4ed8" rx="1"/>
    
    <!-- Flag pole -->
    <rect x="64" y="20" width="2" height="20" fill="#dc2626"/>
    <rect x="66" y="20" width="8" height="6" fill="#dc2626"/>
    
    <!-- Book icon -->
    <g transform="translate(8, 100)">
      <rect x="0" y="0" width="8" height="12" fill="#059669" rx="1"/>
      <rect x="2" y="2" width="4" height="1" fill="white"/>
      <rect x="2" y="4" width="4" height="1" fill="white"/>
      <rect x="2" y="6" width="3" height="1" fill="white"/>
    </g>
    
    <!-- Graduation cap -->
    <g transform="translate(112, 96)">
      <ellipse cx="8" cy="8" rx="8" ry="3" fill="#1d4ed8"/>
      <rect x="6" y="5" width="4" height="6" fill="#1d4ed8"/>
      <rect x="14" y="8" width="2" height="8" fill="#dc2626"/>
      <rect x="16" y="8" width="4" height="2" fill="#dc2626"/>
    </g>
  </g>
</svg>