<svg width="512" height="512" viewBox="0 0 512 512" fill="none" xmlns="http://www.w3.org/2000/svg">
  <!-- Background with gradient -->
  <defs>
    <linearGradient id="bgGradient512" x1="0%" y1="0%" x2="100%" y2="100%">
      <stop offset="0%" style="stop-color:#3b82f6;stop-opacity:1" />
      <stop offset="100%" style="stop-color:#1d4ed8;stop-opacity:1" />
    </linearGradient>
    <linearGradient id="roofGradient512" x1="0%" y1="0%" x2="100%" y2="100%">
      <stop offset="0%" style="stop-color:#ef4444;stop-opacity:1" />
      <stop offset="100%" style="stop-color:#dc2626;stop-opacity:1" />
    </linearGradient>
  </defs>
  
  <!-- Background circle -->
  <circle cx="256" cy="256" r="256" fill="url(#bgGradient512)"/>
  
  <!-- School building - centered and simplified -->
  <g transform="translate(256, 256)">
    <!-- Main building -->
    <rect x="-106" y="-26" width="212" height="133" fill="white" rx="10"/>
    
    <!-- Triangular roof -->
    <path d="M-133 -26 L0 -106 L133 -26 Z" fill="url(#roofGradient512)"/>
    
    <!-- Door -->
    <rect x="-21" y="27" width="42" height="80" fill="#1d4ed8" rx="5"/>
    <circle cx="11" cy="67" r="5" fill="white"/>
    
    <!-- Windows - symmetrical -->
    <rect x="-80" y="-13" width="32" height="32" fill="#1d4ed8" rx="5"/>
    <rect x="-80" y="21" width="32" height="32" fill="#1d4ed8" rx="5"/>
    
    <rect x="48" y="-13" width="32" height="32" fill="#1d4ed8" rx="5"/>
    <rect x="48" y="21" width="32" height="32" fill="#1d4ed8" rx="5"/>
    
    <!-- Small decorative elements -->
    <rect x="-5" y="-93" width="11" height="40" fill="#fbbf24"/>
    <rect x="-16" y="-93" width="32" height="11" fill="#f59e0b"/>
  </g>
</svg>